<svg xmlns="http://www.w3.org/2000/svg" xmlns:xlink="http://www.w3.org/1999/xlink" width="1200" zoomAndPan="magnify" viewBox="0 0 900 472.499986" height="630" preserveAspectRatio="xMidYMid meet" version="1.2"><defs/><g id="53fbc0c25a"><path style="fill:none;stroke-width:4;stroke-linecap:butt;stroke-linejoin:miter;stroke:#000000;stroke-opacity:1;stroke-miterlimit:4;" d="M 0.000058272 2.001685 L 544.596614 2.001685 " transform="matrix(0,-0.749207,0.749207,0,473.972979,442.484419)"/><g style="fill:#000000;fill-opacity:1;"><g transform="translate(530.813491, 164.299963)"><path style="stroke:none" d="M 17.453125 0.453125 C 14.472656 0.453125 11.597656 -0.00390625 8.828125 -0.921875 C 6.066406 -1.847656 3.894531 -3.046875 2.3125 -4.515625 L 4.40625 -8.921875 C 5.90625 -7.566406 7.832031 -6.460938 10.1875 -5.609375 C 12.539062 -4.765625 14.960938 -4.34375 17.453125 -4.34375 C 20.722656 -4.34375 23.164062 -4.898438 24.78125 -6.015625 C 26.40625 -7.128906 27.21875 -8.609375 27.21875 -10.453125 C 27.21875 -11.804688 26.773438 -12.90625 25.890625 -13.75 C 25.003906 -14.59375 23.910156 -15.238281 22.609375 -15.6875 C 21.316406 -16.144531 19.484375 -16.65625 17.109375 -17.21875 C 14.140625 -17.9375 11.738281 -18.648438 9.90625 -19.359375 C 8.082031 -20.078125 6.519531 -21.179688 5.21875 -22.671875 C 3.925781 -24.160156 3.28125 -26.164062 3.28125 -28.6875 C 3.28125 -30.789062 3.832031 -32.691406 4.9375 -34.390625 C 6.050781 -36.085938 7.738281 -37.441406 10 -38.453125 C 12.257812 -39.472656 15.0625 -39.984375 18.40625 -39.984375 C 20.738281 -39.984375 23.035156 -39.679688 25.296875 -39.078125 C 27.554688 -38.472656 29.492188 -37.609375 31.109375 -36.484375 L 29.25 -31.96875 C 27.59375 -33.019531 25.820312 -33.816406 23.9375 -34.359375 C 22.0625 -34.910156 20.21875 -35.1875 18.40625 -35.1875 C 15.207031 -35.1875 12.804688 -34.597656 11.203125 -33.421875 C 9.609375 -32.253906 8.8125 -30.75 8.8125 -28.90625 C 8.8125 -27.550781 9.257812 -26.453125 10.15625 -25.609375 C 11.0625 -24.765625 12.179688 -24.101562 13.515625 -23.625 C 14.859375 -23.15625 16.675781 -22.660156 18.96875 -22.140625 C 21.945312 -21.421875 24.335938 -20.703125 26.140625 -19.984375 C 27.953125 -19.273438 29.503906 -18.1875 30.796875 -16.71875 C 32.097656 -15.25 32.75 -13.269531 32.75 -10.78125 C 32.75 -8.71875 32.179688 -6.828125 31.046875 -5.109375 C 29.921875 -3.398438 28.207031 -2.046875 25.90625 -1.046875 C 23.613281 -0.046875 20.796875 0.453125 17.453125 0.453125 Z M 17.453125 0.453125 "/></g></g><g style="fill:#000000;fill-opacity:1;"><g transform="translate(572.485349, 164.299963)"><path style="stroke:none" d="M 17.953125 0.34375 C 14.984375 0.34375 12.3125 -0.3125 9.9375 -1.625 C 7.5625 -2.945312 5.707031 -4.765625 4.375 -7.078125 C 3.039062 -9.398438 2.375 -12.03125 2.375 -14.96875 C 2.375 -17.90625 3.039062 -20.53125 4.375 -22.84375 C 5.707031 -25.15625 7.5625 -26.957031 9.9375 -28.25 C 12.3125 -29.550781 14.984375 -30.203125 17.953125 -30.203125 C 20.929688 -30.203125 23.597656 -29.550781 25.953125 -28.25 C 28.304688 -26.957031 30.148438 -25.15625 31.484375 -22.84375 C 32.816406 -20.53125 33.484375 -17.90625 33.484375 -14.96875 C 33.484375 -12.03125 32.816406 -9.398438 31.484375 -7.078125 C 30.148438 -4.765625 28.304688 -2.945312 25.953125 -1.625 C 23.597656 -0.3125 20.929688 0.34375 17.953125 0.34375 Z M 17.953125 -4.40625 C 19.878906 -4.40625 21.601562 -4.847656 23.125 -5.734375 C 24.644531 -6.617188 25.835938 -7.859375 26.703125 -9.453125 C 27.578125 -11.054688 28.015625 -12.894531 28.015625 -14.96875 C 28.015625 -17.03125 27.578125 -18.863281 26.703125 -20.46875 C 25.835938 -22.070312 24.644531 -23.304688 23.125 -24.171875 C 21.601562 -25.035156 19.878906 -25.46875 17.953125 -25.46875 C 16.035156 -25.46875 14.3125 -25.035156 12.78125 -24.171875 C 11.257812 -23.304688 10.054688 -22.070312 9.171875 -20.46875 C 8.285156 -18.863281 7.84375 -17.03125 7.84375 -14.96875 C 7.84375 -12.894531 8.285156 -11.054688 9.171875 -9.453125 C 10.054688 -7.859375 11.257812 -6.617188 12.78125 -5.734375 C 14.3125 -4.847656 16.035156 -4.40625 17.953125 -4.40625 Z M 17.953125 -4.40625 "/></g></g><g style="fill:#000000;fill-opacity:1;"><g transform="translate(614.947712, 164.299963)"><path style="stroke:none" d="M 5.140625 -41.90625 L 10.5625 -41.90625 L 10.5625 0 L 5.140625 0 Z M 5.140625 -41.90625 "/></g></g><g style="fill:#000000;fill-opacity:1;"><g transform="translate(637.308551, 164.299963)"><path style="stroke:none" d="M 31.625 -29.921875 L 18.515625 0 L 12.984375 0 L -0.109375 -29.921875 L 5.53125 -29.921875 L 15.8125 -5.921875 L 26.3125 -29.921875 Z M 31.625 -29.921875 "/></g></g><g style="fill:#000000;fill-opacity:1;"><g transform="translate(675.479583, 164.299963)"><path style="stroke:none" d="M 5.140625 -29.921875 L 10.5625 -29.921875 L 10.5625 0 L 5.140625 0 Z M 7.859375 -35.6875 C 6.804688 -35.6875 5.929688 -36.023438 5.234375 -36.703125 C 4.535156 -37.378906 4.1875 -38.207031 4.1875 -39.1875 C 4.1875 -40.164062 4.535156 -41.003906 5.234375 -41.703125 C 5.929688 -42.398438 6.804688 -42.75 7.859375 -42.75 C 8.910156 -42.75 9.785156 -42.414062 10.484375 -41.75 C 11.179688 -41.09375 11.53125 -40.273438 11.53125 -39.296875 C 11.53125 -38.285156 11.179688 -37.429688 10.484375 -36.734375 C 9.785156 -36.035156 8.910156 -35.6875 7.859375 -35.6875 Z M 7.859375 -35.6875 "/></g></g><g style="fill:#000000;fill-opacity:1;"><g transform="translate(697.840422, 164.299963)"><path style="stroke:none" d="M 21.125 -30.203125 C 24.925781 -30.203125 27.945312 -29.101562 30.1875 -26.90625 C 32.425781 -24.707031 33.546875 -21.476562 33.546875 -17.21875 L 33.546875 0 L 28.125 0 L 28.125 -16.609375 C 28.125 -19.503906 27.425781 -21.6875 26.03125 -23.15625 C 24.632812 -24.625 22.640625 -25.359375 20.046875 -25.359375 C 17.109375 -25.359375 14.789062 -24.5 13.09375 -22.78125 C 11.40625 -21.070312 10.5625 -18.617188 10.5625 -15.421875 L 10.5625 0 L 5.140625 0 L 5.140625 -29.921875 L 10.328125 -29.921875 L 10.328125 -25.40625 C 11.421875 -26.945312 12.898438 -28.128906 14.765625 -28.953125 C 16.628906 -29.785156 18.75 -30.203125 21.125 -30.203125 Z M 21.125 -30.203125 "/></g></g><g style="fill:#000000;fill-opacity:1;"><g transform="translate(742.900176, 164.299963)"><path style="stroke:none" d="M 33.765625 -29.921875 L 33.765625 -4.0625 C 33.765625 1.164062 32.460938 5.03125 29.859375 7.53125 C 27.265625 10.039062 23.390625 11.296875 18.234375 11.296875 C 15.410156 11.296875 12.71875 10.910156 10.15625 10.140625 C 7.601562 9.367188 5.535156 8.265625 3.953125 6.828125 L 6.546875 2.65625 C 7.941406 3.863281 9.664062 4.8125 11.71875 5.5 C 13.769531 6.195312 15.882812 6.546875 18.0625 6.546875 C 21.570312 6.546875 24.160156 5.71875 25.828125 4.0625 C 27.503906 2.40625 28.34375 -0.113281 28.34375 -3.5 L 28.34375 -5.875 C 27.0625 -4.332031 25.488281 -3.175781 23.625 -2.40625 C 21.769531 -1.632812 19.75 -1.25 17.5625 -1.25 C 14.695312 -1.25 12.109375 -1.859375 9.796875 -3.078125 C 7.484375 -4.296875 5.664062 -6.003906 4.34375 -8.203125 C 3.03125 -10.410156 2.375 -12.925781 2.375 -15.75 C 2.375 -18.570312 3.03125 -21.082031 4.34375 -23.28125 C 5.664062 -25.488281 7.484375 -27.191406 9.796875 -28.390625 C 12.109375 -29.597656 14.695312 -30.203125 17.5625 -30.203125 C 19.820312 -30.203125 21.921875 -29.785156 23.859375 -28.953125 C 25.796875 -28.128906 27.382812 -26.910156 28.625 -25.296875 L 28.625 -29.921875 Z M 18.1875 -5.984375 C 20.144531 -5.984375 21.90625 -6.394531 23.46875 -7.21875 C 25.03125 -8.050781 26.25 -9.210938 27.125 -10.703125 C 28.007812 -12.191406 28.453125 -13.875 28.453125 -15.75 C 28.453125 -18.65625 27.492188 -21 25.578125 -22.78125 C 23.660156 -24.570312 21.195312 -25.46875 18.1875 -25.46875 C 15.132812 -25.46875 12.644531 -24.570312 10.71875 -22.78125 C 8.800781 -21 7.84375 -18.65625 7.84375 -15.75 C 7.84375 -13.875 8.285156 -12.191406 9.171875 -10.703125 C 10.054688 -9.210938 11.28125 -8.050781 12.84375 -7.21875 C 14.40625 -6.394531 16.1875 -5.984375 18.1875 -5.984375 Z M 18.1875 -5.984375 "/></g></g><g style="fill:#000000;fill-opacity:1;"><g transform="translate(530.813491, 226.21651)"><path style="stroke:none" d="M 21.125 -30.203125 C 24.925781 -30.203125 27.945312 -29.101562 30.1875 -26.90625 C 32.425781 -24.707031 33.546875 -21.476562 33.546875 -17.21875 L 33.546875 0 L 28.125 0 L 28.125 -16.609375 C 28.125 -19.503906 27.425781 -21.6875 26.03125 -23.15625 C 24.632812 -24.625 22.640625 -25.359375 20.046875 -25.359375 C 17.109375 -25.359375 14.789062 -24.5 13.09375 -22.78125 C 11.40625 -21.070312 10.5625 -18.617188 10.5625 -15.421875 L 10.5625 0 L 5.140625 0 L 5.140625 -41.90625 L 10.5625 -41.90625 L 10.5625 -25.6875 C 11.6875 -27.125 13.160156 -28.234375 14.984375 -29.015625 C 16.816406 -29.804688 18.863281 -30.203125 21.125 -30.203125 Z M 21.125 -30.203125 "/></g></g><g style="fill:#000000;fill-opacity:1;"><g transform="translate(575.873244, 226.21651)"><path style="stroke:none" d="M 16.03125 -30.203125 C 20.175781 -30.203125 23.347656 -29.1875 25.546875 -27.15625 C 27.753906 -25.125 28.859375 -22.09375 28.859375 -18.0625 L 28.859375 0 L 23.71875 0 L 23.71875 -3.953125 C 22.8125 -2.554688 21.519531 -1.488281 19.84375 -0.75 C 18.164062 -0.0195312 16.179688 0.34375 13.890625 0.34375 C 10.535156 0.34375 7.851562 -0.460938 5.84375 -2.078125 C 3.832031 -3.703125 2.828125 -5.832031 2.828125 -8.46875 C 2.828125 -11.101562 3.785156 -13.21875 5.703125 -14.8125 C 7.617188 -16.414062 10.664062 -17.21875 14.84375 -17.21875 L 23.4375 -17.21875 L 23.4375 -18.296875 C 23.4375 -20.628906 22.757812 -22.414062 21.40625 -23.65625 C 20.050781 -24.90625 18.054688 -25.53125 15.421875 -25.53125 C 13.648438 -25.53125 11.914062 -25.234375 10.21875 -24.640625 C 8.53125 -24.054688 7.097656 -23.28125 5.921875 -22.3125 L 3.671875 -26.375 C 5.210938 -27.613281 7.054688 -28.5625 9.203125 -29.21875 C 11.347656 -29.875 13.625 -30.203125 16.03125 -30.203125 Z M 14.796875 -3.84375 C 16.867188 -3.84375 18.65625 -4.300781 20.15625 -5.21875 C 21.664062 -6.144531 22.757812 -7.453125 23.4375 -9.140625 L 23.4375 -13.328125 L 15.078125 -13.328125 C 10.484375 -13.328125 8.1875 -11.785156 8.1875 -8.703125 C 8.1875 -7.191406 8.769531 -6.003906 9.9375 -5.140625 C 11.101562 -4.273438 12.722656 -3.84375 14.796875 -3.84375 Z M 14.796875 -3.84375 "/></g></g><g style="fill:#000000;fill-opacity:1;"><g transform="translate(616.246407, 226.21651)"><path style="stroke:none" d="M 10.328125 -24.90625 C 11.273438 -26.632812 12.671875 -27.945312 14.515625 -28.84375 C 16.359375 -29.75 18.597656 -30.203125 21.234375 -30.203125 L 21.234375 -24.953125 C 20.929688 -24.992188 20.515625 -25.015625 19.984375 -25.015625 C 17.046875 -25.015625 14.738281 -24.140625 13.0625 -22.390625 C 11.394531 -20.640625 10.5625 -18.144531 10.5625 -14.90625 L 10.5625 0 L 5.140625 0 L 5.140625 -29.921875 L 10.328125 -29.921875 Z M 10.328125 -24.90625 "/></g></g><g style="fill:#000000;fill-opacity:1;"><g transform="translate(646.004159, 226.21651)"><path style="stroke:none" d="M 33.375 -41.90625 L 33.375 0 L 28.171875 0 L 28.171875 -4.75 C 26.972656 -3.09375 25.453125 -1.828125 23.609375 -0.953125 C 21.765625 -0.0859375 19.726562 0.34375 17.5 0.34375 C 14.601562 0.34375 12.003906 -0.296875 9.703125 -1.578125 C 7.410156 -2.859375 5.613281 -4.65625 4.3125 -6.96875 C 3.019531 -9.289062 2.375 -11.957031 2.375 -14.96875 C 2.375 -17.976562 3.019531 -20.628906 4.3125 -22.921875 C 5.613281 -25.222656 7.410156 -27.007812 9.703125 -28.28125 C 12.003906 -29.5625 14.601562 -30.203125 17.5 -30.203125 C 19.644531 -30.203125 21.617188 -29.796875 23.421875 -28.984375 C 25.234375 -28.179688 26.742188 -26.988281 27.953125 -25.40625 L 27.953125 -41.90625 Z M 17.953125 -4.40625 C 19.835938 -4.40625 21.550781 -4.847656 23.09375 -5.734375 C 24.632812 -6.617188 25.835938 -7.859375 26.703125 -9.453125 C 27.578125 -11.054688 28.015625 -12.894531 28.015625 -14.96875 C 28.015625 -17.03125 27.578125 -18.863281 26.703125 -20.46875 C 25.835938 -22.070312 24.632812 -23.304688 23.09375 -24.171875 C 21.550781 -25.035156 19.835938 -25.46875 17.953125 -25.46875 C 16.035156 -25.46875 14.3125 -25.035156 12.78125 -24.171875 C 11.257812 -23.304688 10.054688 -22.070312 9.171875 -20.46875 C 8.285156 -18.863281 7.84375 -17.03125 7.84375 -14.96875 C 7.84375 -12.894531 8.285156 -11.054688 9.171875 -9.453125 C 10.054688 -7.859375 11.257812 -6.617188 12.78125 -5.734375 C 14.3125 -4.847656 16.035156 -4.40625 17.953125 -4.40625 Z M 17.953125 -4.40625 "/></g></g><g style="fill:#000000;fill-opacity:1;"><g transform="translate(691.127068, 226.21651)"><path style="stroke:none" d=""/></g></g><g style="fill:#000000;fill-opacity:1;"><g transform="translate(530.813491, 288.133057)"><path style="stroke:none" d="M 13.71875 0.34375 C 11.269531 0.34375 8.914062 0.015625 6.65625 -0.640625 C 4.40625 -1.304688 2.640625 -2.144531 1.359375 -3.15625 L 3.609375 -7.453125 C 4.929688 -6.515625 6.53125 -5.757812 8.40625 -5.1875 C 10.289062 -4.625 12.191406 -4.34375 14.109375 -4.34375 C 18.859375 -4.34375 21.234375 -5.695312 21.234375 -8.40625 C 21.234375 -9.3125 20.910156 -10.023438 20.265625 -10.546875 C 19.628906 -11.078125 18.832031 -11.460938 17.875 -11.703125 C 16.914062 -11.953125 15.550781 -12.226562 13.78125 -12.53125 C 11.375 -12.90625 9.40625 -13.335938 7.875 -13.828125 C 6.351562 -14.316406 5.046875 -15.144531 3.953125 -16.3125 C 2.859375 -17.476562 2.3125 -19.117188 2.3125 -21.234375 C 2.3125 -23.941406 3.441406 -26.113281 5.703125 -27.75 C 7.960938 -29.382812 10.992188 -30.203125 14.796875 -30.203125 C 16.785156 -30.203125 18.773438 -29.957031 20.765625 -29.46875 C 22.765625 -28.988281 24.40625 -28.332031 25.6875 -27.5 L 23.375 -23.203125 C 20.925781 -24.785156 18.046875 -25.578125 14.734375 -25.578125 C 12.441406 -25.578125 10.691406 -25.203125 9.484375 -24.453125 C 8.285156 -23.703125 7.6875 -22.703125 7.6875 -21.453125 C 7.6875 -20.472656 8.023438 -19.703125 8.703125 -19.140625 C 9.378906 -18.578125 10.210938 -18.160156 11.203125 -17.890625 C 12.203125 -17.628906 13.609375 -17.332031 15.421875 -17 C 17.828125 -16.582031 19.769531 -16.140625 21.25 -15.671875 C 22.738281 -15.203125 24.007812 -14.398438 25.0625 -13.265625 C 26.125 -12.140625 26.65625 -10.5625 26.65625 -8.53125 C 26.65625 -5.820312 25.492188 -3.664062 23.171875 -2.0625 C 20.859375 -0.457031 17.707031 0.34375 13.71875 0.34375 Z M 13.71875 0.34375 "/></g></g><g style="fill:#000000;fill-opacity:1;"><g transform="translate(565.709551, 288.133057)"><path style="stroke:none" d="M 17.953125 0.34375 C 14.984375 0.34375 12.3125 -0.3125 9.9375 -1.625 C 7.5625 -2.945312 5.707031 -4.765625 4.375 -7.078125 C 3.039062 -9.398438 2.375 -12.03125 2.375 -14.96875 C 2.375 -17.90625 3.039062 -20.53125 4.375 -22.84375 C 5.707031 -25.15625 7.5625 -26.957031 9.9375 -28.25 C 12.3125 -29.550781 14.984375 -30.203125 17.953125 -30.203125 C 20.929688 -30.203125 23.597656 -29.550781 25.953125 -28.25 C 28.304688 -26.957031 30.148438 -25.15625 31.484375 -22.84375 C 32.816406 -20.53125 33.484375 -17.90625 33.484375 -14.96875 C 33.484375 -12.03125 32.816406 -9.398438 31.484375 -7.078125 C 30.148438 -4.765625 28.304688 -2.945312 25.953125 -1.625 C 23.597656 -0.3125 20.929688 0.34375 17.953125 0.34375 Z M 17.953125 -4.40625 C 19.878906 -4.40625 21.601562 -4.847656 23.125 -5.734375 C 24.644531 -6.617188 25.835938 -7.859375 26.703125 -9.453125 C 27.578125 -11.054688 28.015625 -12.894531 28.015625 -14.96875 C 28.015625 -17.03125 27.578125 -18.863281 26.703125 -20.46875 C 25.835938 -22.070312 24.644531 -23.304688 23.125 -24.171875 C 21.601562 -25.035156 19.878906 -25.46875 17.953125 -25.46875 C 16.035156 -25.46875 14.3125 -25.035156 12.78125 -24.171875 C 11.257812 -23.304688 10.054688 -22.070312 9.171875 -20.46875 C 8.285156 -18.863281 7.84375 -17.03125 7.84375 -14.96875 C 7.84375 -12.894531 8.285156 -11.054688 9.171875 -9.453125 C 10.054688 -7.859375 11.257812 -6.617188 12.78125 -5.734375 C 14.3125 -4.847656 16.035156 -4.40625 17.953125 -4.40625 Z M 17.953125 -4.40625 "/></g></g><g style="fill:#000000;fill-opacity:1;"><g transform="translate(608.171914, 288.133057)"><path style="stroke:none" d="M 16.09375 -37.78125 C 12.851562 -37.78125 11.234375 -36.03125 11.234375 -32.53125 L 11.234375 -29.921875 L 19.9375 -29.921875 L 19.9375 -25.46875 L 11.34375 -25.46875 L 11.34375 0 L 5.921875 0 L 5.921875 -25.46875 L 0.84375 -25.46875 L 0.84375 -29.921875 L 5.921875 -29.921875 L 5.921875 -32.578125 C 5.921875 -35.554688 6.785156 -37.910156 8.515625 -39.640625 C 10.253906 -41.367188 12.6875 -42.234375 15.8125 -42.234375 C 17.019531 -42.234375 18.148438 -42.082031 19.203125 -41.78125 C 20.253906 -41.476562 21.15625 -41.046875 21.90625 -40.484375 L 20.265625 -36.359375 C 19.023438 -37.304688 17.632812 -37.78125 16.09375 -37.78125 Z M 16.09375 -37.78125 "/></g></g><g style="fill:#000000;fill-opacity:1;"><g transform="translate(634.711161, 288.133057)"><path style="stroke:none" d="M 21.96875 -1.75 C 21.175781 -1.070312 20.195312 -0.550781 19.03125 -0.1875 C 17.863281 0.164062 16.660156 0.34375 15.421875 0.34375 C 12.410156 0.34375 10.070312 -0.460938 8.40625 -2.078125 C 6.75 -3.703125 5.921875 -6.019531 5.921875 -9.03125 L 5.921875 -25.46875 L 0.84375 -25.46875 L 0.84375 -29.921875 L 5.921875 -29.921875 L 5.921875 -36.484375 L 11.34375 -36.484375 L 11.34375 -29.921875 L 19.9375 -29.921875 L 19.9375 -25.46875 L 11.34375 -25.46875 L 11.34375 -9.265625 C 11.34375 -7.640625 11.75 -6.394531 12.5625 -5.53125 C 13.375 -4.664062 14.53125 -4.234375 16.03125 -4.234375 C 17.6875 -4.234375 19.097656 -4.703125 20.265625 -5.640625 Z M 21.96875 -1.75 "/></g></g><g style="fill:#000000;fill-opacity:1;"><g transform="translate(664.694761, 288.133057)"><path style="stroke:none" d="M 50.421875 -29.921875 L 39.25 0 L 34.046875 0 L 25.40625 -22.703125 L 16.65625 0 L 11.46875 0 L 0.34375 -29.921875 L 5.484375 -29.921875 L 14.171875 -6.09375 L 23.203125 -29.921875 L 27.78125 -29.921875 L 36.640625 -5.984375 L 45.5625 -29.921875 Z M 50.421875 -29.921875 "/></g></g><g style="fill:#000000;fill-opacity:1;"><g transform="translate(722.063881, 288.133057)"><path style="stroke:none" d="M 16.03125 -30.203125 C 20.175781 -30.203125 23.347656 -29.1875 25.546875 -27.15625 C 27.753906 -25.125 28.859375 -22.09375 28.859375 -18.0625 L 28.859375 0 L 23.71875 0 L 23.71875 -3.953125 C 22.8125 -2.554688 21.519531 -1.488281 19.84375 -0.75 C 18.164062 -0.0195312 16.179688 0.34375 13.890625 0.34375 C 10.535156 0.34375 7.851562 -0.460938 5.84375 -2.078125 C 3.832031 -3.703125 2.828125 -5.832031 2.828125 -8.46875 C 2.828125 -11.101562 3.785156 -13.21875 5.703125 -14.8125 C 7.617188 -16.414062 10.664062 -17.21875 14.84375 -17.21875 L 23.4375 -17.21875 L 23.4375 -18.296875 C 23.4375 -20.628906 22.757812 -22.414062 21.40625 -23.65625 C 20.050781 -24.90625 18.054688 -25.53125 15.421875 -25.53125 C 13.648438 -25.53125 11.914062 -25.234375 10.21875 -24.640625 C 8.53125 -24.054688 7.097656 -23.28125 5.921875 -22.3125 L 3.671875 -26.375 C 5.210938 -27.613281 7.054688 -28.5625 9.203125 -29.21875 C 11.347656 -29.875 13.625 -30.203125 16.03125 -30.203125 Z M 14.796875 -3.84375 C 16.867188 -3.84375 18.65625 -4.300781 20.15625 -5.21875 C 21.664062 -6.144531 22.757812 -7.453125 23.4375 -9.140625 L 23.4375 -13.328125 L 15.078125 -13.328125 C 10.484375 -13.328125 8.1875 -11.785156 8.1875 -8.703125 C 8.1875 -7.191406 8.769531 -6.003906 9.9375 -5.140625 C 11.101562 -4.273438 12.722656 -3.84375 14.796875 -3.84375 Z M 14.796875 -3.84375 "/></g></g><g style="fill:#000000;fill-opacity:1;"><g transform="translate(762.437044, 288.133057)"><path style="stroke:none" d="M 10.328125 -24.90625 C 11.273438 -26.632812 12.671875 -27.945312 14.515625 -28.84375 C 16.359375 -29.75 18.597656 -30.203125 21.234375 -30.203125 L 21.234375 -24.953125 C 20.929688 -24.992188 20.515625 -25.015625 19.984375 -25.015625 C 17.046875 -25.015625 14.738281 -24.140625 13.0625 -22.390625 C 11.394531 -20.640625 10.5625 -18.144531 10.5625 -14.90625 L 10.5625 0 L 5.140625 0 L 5.140625 -29.921875 L 10.328125 -29.921875 Z M 10.328125 -24.90625 "/></g></g><g style="fill:#000000;fill-opacity:1;"><g transform="translate(792.194809, 288.133057)"><path style="stroke:none" d="M 32.1875 -14.796875 C 32.1875 -14.378906 32.148438 -13.832031 32.078125 -13.15625 L 7.796875 -13.15625 C 8.128906 -10.519531 9.285156 -8.398438 11.265625 -6.796875 C 13.242188 -5.203125 15.703125 -4.40625 18.640625 -4.40625 C 22.210938 -4.40625 25.09375 -5.609375 27.28125 -8.015625 L 30.265625 -4.515625 C 28.910156 -2.929688 27.222656 -1.722656 25.203125 -0.890625 C 23.191406 -0.0664062 20.945312 0.34375 18.46875 0.34375 C 15.300781 0.34375 12.492188 -0.304688 10.046875 -1.609375 C 7.597656 -2.910156 5.707031 -4.726562 4.375 -7.0625 C 3.039062 -9.394531 2.375 -12.03125 2.375 -14.96875 C 2.375 -17.863281 3.019531 -20.476562 4.3125 -22.8125 C 5.613281 -25.144531 7.398438 -26.957031 9.671875 -28.25 C 11.953125 -29.550781 14.523438 -30.203125 17.390625 -30.203125 C 20.253906 -30.203125 22.804688 -29.550781 25.046875 -28.25 C 27.285156 -26.957031 29.035156 -25.144531 30.296875 -22.8125 C 31.554688 -20.476562 32.1875 -17.804688 32.1875 -14.796875 Z M 17.390625 -25.640625 C 14.796875 -25.640625 12.625 -24.847656 10.875 -23.265625 C 9.125 -21.679688 8.097656 -19.609375 7.796875 -17.046875 L 26.984375 -17.046875 C 26.691406 -19.578125 25.664062 -21.640625 23.90625 -23.234375 C 22.15625 -24.835938 19.984375 -25.640625 17.390625 -25.640625 Z M 17.390625 -25.640625 "/></g></g><g style="fill:#000000;fill-opacity:1;"><g transform="translate(530.813491, 350.049604)"><path style="stroke:none" d="M 21 -30.203125 C 23.90625 -30.203125 26.503906 -29.5625 28.796875 -28.28125 C 31.097656 -27.007812 32.894531 -25.222656 34.1875 -22.921875 C 35.488281 -20.628906 36.140625 -17.976562 36.140625 -14.96875 C 36.140625 -11.957031 35.488281 -9.289062 34.1875 -6.96875 C 32.894531 -4.65625 31.097656 -2.859375 28.796875 -1.578125 C 26.503906 -0.296875 23.90625 0.34375 21 0.34375 C 18.851562 0.34375 16.882812 -0.0664062 15.09375 -0.890625 C 13.3125 -1.722656 11.800781 -2.929688 10.5625 -4.515625 L 10.5625 10.953125 L 5.140625 10.953125 L 5.140625 -29.921875 L 10.328125 -29.921875 L 10.328125 -25.1875 C 11.535156 -26.84375 13.0625 -28.09375 14.90625 -28.9375 C 16.75 -29.78125 18.78125 -30.203125 21 -30.203125 Z M 20.546875 -4.40625 C 22.472656 -4.40625 24.195312 -4.847656 25.71875 -5.734375 C 27.25 -6.617188 28.453125 -7.859375 29.328125 -9.453125 C 30.210938 -11.054688 30.65625 -12.894531 30.65625 -14.96875 C 30.65625 -17.03125 30.210938 -18.863281 29.328125 -20.46875 C 28.453125 -22.070312 27.25 -23.304688 25.71875 -24.171875 C 24.195312 -25.035156 22.472656 -25.46875 20.546875 -25.46875 C 18.671875 -25.46875 16.96875 -25.023438 15.4375 -24.140625 C 13.914062 -23.253906 12.710938 -22.019531 11.828125 -20.4375 C 10.941406 -18.851562 10.5 -17.03125 10.5 -14.96875 C 10.5 -12.894531 10.929688 -11.054688 11.796875 -9.453125 C 12.660156 -7.859375 13.863281 -6.617188 15.40625 -5.734375 C 16.957031 -4.847656 18.671875 -4.40625 20.546875 -4.40625 Z M 20.546875 -4.40625 "/></g></g><g style="fill:#000000;fill-opacity:1;"><g transform="translate(575.92971, 350.049604)"><path style="stroke:none" d="M 10.328125 -24.90625 C 11.273438 -26.632812 12.671875 -27.945312 14.515625 -28.84375 C 16.359375 -29.75 18.597656 -30.203125 21.234375 -30.203125 L 21.234375 -24.953125 C 20.929688 -24.992188 20.515625 -25.015625 19.984375 -25.015625 C 17.046875 -25.015625 14.738281 -24.140625 13.0625 -22.390625 C 11.394531 -20.640625 10.5625 -18.144531 10.5625 -14.90625 L 10.5625 0 L 5.140625 0 L 5.140625 -29.921875 L 10.328125 -29.921875 Z M 10.328125 -24.90625 "/></g></g><g style="fill:#000000;fill-opacity:1;"><g transform="translate(605.687461, 350.049604)"><path style="stroke:none" d="M 17.953125 0.34375 C 14.984375 0.34375 12.3125 -0.3125 9.9375 -1.625 C 7.5625 -2.945312 5.707031 -4.765625 4.375 -7.078125 C 3.039062 -9.398438 2.375 -12.03125 2.375 -14.96875 C 2.375 -17.90625 3.039062 -20.53125 4.375 -22.84375 C 5.707031 -25.15625 7.5625 -26.957031 9.9375 -28.25 C 12.3125 -29.550781 14.984375 -30.203125 17.953125 -30.203125 C 20.929688 -30.203125 23.597656 -29.550781 25.953125 -28.25 C 28.304688 -26.957031 30.148438 -25.15625 31.484375 -22.84375 C 32.816406 -20.53125 33.484375 -17.90625 33.484375 -14.96875 C 33.484375 -12.03125 32.816406 -9.398438 31.484375 -7.078125 C 30.148438 -4.765625 28.304688 -2.945312 25.953125 -1.625 C 23.597656 -0.3125 20.929688 0.34375 17.953125 0.34375 Z M 17.953125 -4.40625 C 19.878906 -4.40625 21.601562 -4.847656 23.125 -5.734375 C 24.644531 -6.617188 25.835938 -7.859375 26.703125 -9.453125 C 27.578125 -11.054688 28.015625 -12.894531 28.015625 -14.96875 C 28.015625 -17.03125 27.578125 -18.863281 26.703125 -20.46875 C 25.835938 -22.070312 24.644531 -23.304688 23.125 -24.171875 C 21.601562 -25.035156 19.878906 -25.46875 17.953125 -25.46875 C 16.035156 -25.46875 14.3125 -25.035156 12.78125 -24.171875 C 11.257812 -23.304688 10.054688 -22.070312 9.171875 -20.46875 C 8.285156 -18.863281 7.84375 -17.03125 7.84375 -14.96875 C 7.84375 -12.894531 8.285156 -11.054688 9.171875 -9.453125 C 10.054688 -7.859375 11.257812 -6.617188 12.78125 -5.734375 C 14.3125 -4.847656 16.035156 -4.40625 17.953125 -4.40625 Z M 17.953125 -4.40625 "/></g></g><g style="fill:#000000;fill-opacity:1;"><g transform="translate(648.149825, 350.049604)"><path style="stroke:none" d="M 21 -30.203125 C 23.90625 -30.203125 26.503906 -29.5625 28.796875 -28.28125 C 31.097656 -27.007812 32.894531 -25.222656 34.1875 -22.921875 C 35.488281 -20.628906 36.140625 -17.976562 36.140625 -14.96875 C 36.140625 -11.957031 35.488281 -9.289062 34.1875 -6.96875 C 32.894531 -4.65625 31.097656 -2.859375 28.796875 -1.578125 C 26.503906 -0.296875 23.90625 0.34375 21 0.34375 C 18.78125 0.34375 16.75 -0.0859375 14.90625 -0.953125 C 13.0625 -1.828125 11.535156 -3.09375 10.328125 -4.75 L 10.328125 0 L 5.140625 0 L 5.140625 -41.90625 L 10.5625 -41.90625 L 10.5625 -25.40625 C 11.757812 -26.988281 13.257812 -28.179688 15.0625 -28.984375 C 16.875 -29.796875 18.851562 -30.203125 21 -30.203125 Z M 20.546875 -4.40625 C 22.472656 -4.40625 24.195312 -4.847656 25.71875 -5.734375 C 27.25 -6.617188 28.453125 -7.859375 29.328125 -9.453125 C 30.210938 -11.054688 30.65625 -12.894531 30.65625 -14.96875 C 30.65625 -17.03125 30.210938 -18.863281 29.328125 -20.46875 C 28.453125 -22.070312 27.25 -23.304688 25.71875 -24.171875 C 24.195312 -25.035156 22.472656 -25.46875 20.546875 -25.46875 C 18.671875 -25.46875 16.957031 -25.035156 15.40625 -24.171875 C 13.863281 -23.304688 12.660156 -22.070312 11.796875 -20.46875 C 10.929688 -18.863281 10.5 -17.03125 10.5 -14.96875 C 10.5 -12.894531 10.929688 -11.054688 11.796875 -9.453125 C 12.660156 -7.859375 13.863281 -6.617188 15.40625 -5.734375 C 16.957031 -4.847656 18.671875 -4.40625 20.546875 -4.40625 Z M 20.546875 -4.40625 "/></g></g><g style="fill:#000000;fill-opacity:1;"><g transform="translate(693.266044, 350.049604)"><path style="stroke:none" d="M 5.140625 -41.90625 L 10.5625 -41.90625 L 10.5625 0 L 5.140625 0 Z M 5.140625 -41.90625 "/></g></g><g style="fill:#000000;fill-opacity:1;"><g transform="translate(715.626883, 350.049604)"><path style="stroke:none" d="M 32.1875 -14.796875 C 32.1875 -14.378906 32.148438 -13.832031 32.078125 -13.15625 L 7.796875 -13.15625 C 8.128906 -10.519531 9.285156 -8.398438 11.265625 -6.796875 C 13.242188 -5.203125 15.703125 -4.40625 18.640625 -4.40625 C 22.210938 -4.40625 25.09375 -5.609375 27.28125 -8.015625 L 30.265625 -4.515625 C 28.910156 -2.929688 27.222656 -1.722656 25.203125 -0.890625 C 23.191406 -0.0664062 20.945312 0.34375 18.46875 0.34375 C 15.300781 0.34375 12.492188 -0.304688 10.046875 -1.609375 C 7.597656 -2.910156 5.707031 -4.726562 4.375 -7.0625 C 3.039062 -9.394531 2.375 -12.03125 2.375 -14.96875 C 2.375 -17.863281 3.019531 -20.476562 4.3125 -22.8125 C 5.613281 -25.144531 7.398438 -26.957031 9.671875 -28.25 C 11.953125 -29.550781 14.523438 -30.203125 17.390625 -30.203125 C 20.253906 -30.203125 22.804688 -29.550781 25.046875 -28.25 C 27.285156 -26.957031 29.035156 -25.144531 30.296875 -22.8125 C 31.554688 -20.476562 32.1875 -17.804688 32.1875 -14.796875 Z M 17.390625 -25.640625 C 14.796875 -25.640625 12.625 -24.847656 10.875 -23.265625 C 9.125 -21.679688 8.097656 -19.609375 7.796875 -17.046875 L 26.984375 -17.046875 C 26.691406 -19.578125 25.664062 -21.640625 23.90625 -23.234375 C 22.15625 -24.835938 19.984375 -25.640625 17.390625 -25.640625 Z M 17.390625 -25.640625 "/></g></g><g style="fill:#000000;fill-opacity:1;"><g transform="translate(756.790565, 350.049604)"><path style="stroke:none" d="M 42.578125 -30.203125 C 46.335938 -30.203125 49.316406 -29.109375 51.515625 -26.921875 C 53.722656 -24.742188 54.828125 -21.507812 54.828125 -17.21875 L 54.828125 0 L 49.40625 0 L 49.40625 -16.609375 C 49.40625 -19.503906 48.738281 -21.6875 47.40625 -23.15625 C 46.070312 -24.625 44.160156 -25.359375 41.671875 -25.359375 C 38.921875 -25.359375 36.738281 -24.5 35.125 -22.78125 C 33.507812 -21.070312 32.703125 -18.617188 32.703125 -15.421875 L 32.703125 0 L 27.28125 0 L 27.28125 -16.609375 C 27.28125 -19.503906 26.609375 -21.6875 25.265625 -23.15625 C 23.929688 -24.625 22.019531 -25.359375 19.53125 -25.359375 C 16.789062 -25.359375 14.609375 -24.5 12.984375 -22.78125 C 11.367188 -21.070312 10.5625 -18.617188 10.5625 -15.421875 L 10.5625 0 L 5.140625 0 L 5.140625 -29.921875 L 10.328125 -29.921875 L 10.328125 -25.46875 C 11.421875 -27.007812 12.851562 -28.179688 14.625 -28.984375 C 16.394531 -29.796875 18.410156 -30.203125 20.671875 -30.203125 C 23.003906 -30.203125 25.070312 -29.734375 26.875 -28.796875 C 28.6875 -27.859375 30.082031 -26.484375 31.0625 -24.671875 C 32.1875 -26.410156 33.753906 -27.765625 35.765625 -28.734375 C 37.785156 -29.710938 40.054688 -30.203125 42.578125 -30.203125 Z M 42.578125 -30.203125 "/></g></g><g style="fill:#000000;fill-opacity:1;"><g transform="translate(823.081142, 350.049604)"><path style="stroke:none" d="M 13.71875 0.34375 C 11.269531 0.34375 8.914062 0.015625 6.65625 -0.640625 C 4.40625 -1.304688 2.640625 -2.144531 1.359375 -3.15625 L 3.609375 -7.453125 C 4.929688 -6.515625 6.53125 -5.757812 8.40625 -5.1875 C 10.289062 -4.625 12.191406 -4.34375 14.109375 -4.34375 C 18.859375 -4.34375 21.234375 -5.695312 21.234375 -8.40625 C 21.234375 -9.3125 20.910156 -10.023438 20.265625 -10.546875 C 19.628906 -11.078125 18.832031 -11.460938 17.875 -11.703125 C 16.914062 -11.953125 15.550781 -12.226562 13.78125 -12.53125 C 11.375 -12.90625 9.40625 -13.335938 7.875 -13.828125 C 6.351562 -14.316406 5.046875 -15.144531 3.953125 -16.3125 C 2.859375 -17.476562 2.3125 -19.117188 2.3125 -21.234375 C 2.3125 -23.941406 3.441406 -26.113281 5.703125 -27.75 C 7.960938 -29.382812 10.992188 -30.203125 14.796875 -30.203125 C 16.785156 -30.203125 18.773438 -29.957031 20.765625 -29.46875 C 22.765625 -28.988281 24.40625 -28.332031 25.6875 -27.5 L 23.375 -23.203125 C 20.925781 -24.785156 18.046875 -25.578125 14.734375 -25.578125 C 12.441406 -25.578125 10.691406 -25.203125 9.484375 -24.453125 C 8.285156 -23.703125 7.6875 -22.703125 7.6875 -21.453125 C 7.6875 -20.472656 8.023438 -19.703125 8.703125 -19.140625 C 9.378906 -18.578125 10.210938 -18.160156 11.203125 -17.890625 C 12.203125 -17.628906 13.609375 -17.332031 15.421875 -17 C 17.828125 -16.582031 19.769531 -16.140625 21.25 -15.671875 C 22.738281 -15.203125 24.007812 -14.398438 25.0625 -13.265625 C 26.125 -12.140625 26.65625 -10.5625 26.65625 -8.53125 C 26.65625 -5.820312 25.492188 -3.664062 23.171875 -2.0625 C 20.859375 -0.457031 17.707031 0.34375 13.71875 0.34375 Z M 13.71875 0.34375 "/></g></g><path style=" stroke:none;fill-rule:nonzero;fill:#000000;fill-opacity:1;" d="M 223.828125 186.308594 C 228.699219 189.09375 232.179688 190.136719 237.054688 192.921875 C 247.84375 185.265625 260.027344 176.910156 271.164062 169.601562 C 255.847656 152.199219 239.839844 135.144531 223.132812 118.785156 C 217.214844 112.867188 209.554688 105.210938 203.640625 99.640625 C 197.722656 101.035156 192.851562 102.078125 186.933594 103.121094 C 199.8125 128.878906 213.039062 159.160156 223.480469 185.960938 "/><path style=" stroke:none;fill-rule:nonzero;fill:#000000;fill-opacity:1;" d="M 386.71875 39.425781 C 386.71875 39.425781 386.023438 39.425781 385.675781 39.425781 C 379.410156 42.210938 375.582031 43.601562 370.359375 46.039062 C 321.285156 66.921875 270.46875 84.675781 218.257812 96.855469 C 240.535156 117.742188 261.417969 139.667969 281.605469 162.640625 C 318.5 139.320312 362.007812 116.347656 401.339844 98.25 C 398.902344 78.0625 393.332031 59.265625 386.71875 40.121094 C 386.71875 40.121094 386.71875 39.425781 386.371094 39.425781 "/><path style=" stroke:none;fill-rule:nonzero;fill:#000000;fill-opacity:1;" d="M 209.207031 181.4375 C 199.460938 157.070312 187.28125 129.574219 175.445312 105.90625 C 163.960938 108.34375 110.359375 119.132812 94.347656 121.222656 C 92.957031 121.917969 91.5625 123.308594 90.171875 124.355469 C 88.777344 125.746094 87.734375 127.136719 86.34375 128.53125 C 128.109375 143.148438 169.53125 160.898438 209.207031 181.085938 "/><path style=" stroke:none;fill-rule:nonzero;fill:#000000;fill-opacity:1;" d="M 264.898438 394.101562 C 266.289062 395.144531 267.335938 395.84375 268.378906 396.886719 C 264.550781 371.824219 259.675781 346.765625 253.761719 322.054688 C 240.882812 334.582031 228.003906 346.417969 214.429688 357.902344 C 231.484375 369.390625 248.191406 381.222656 264.550781 393.753906 "/><path style=" stroke:none;fill-rule:nonzero;fill:#000000;fill-opacity:1;" d="M 271.164062 414.289062 C 271.164062 412.546875 270.46875 409.417969 270.121094 408.023438 C 250.28125 392.359375 228.699219 376.699219 207.816406 362.429688 C 187.28125 380.179688 165.699219 396.886719 143.773438 412.546875 C 144.121094 420.902344 144.46875 429.605469 144.816406 437.957031 C 148.992188 437.609375 153.171875 436.914062 157.347656 436.21875 C 194.9375 430.996094 270.46875 414.984375 271.164062 414.289062 "/><path style=" stroke:none;fill-rule:nonzero;fill:#000000;fill-opacity:1;" d="M 408.996094 191.878906 C 408.996094 181.085938 407.953125 170.644531 407.253906 158.464844 C 406.90625 151.851562 406.210938 144.191406 405.863281 137.582031 C 394.378906 155.679688 382.195312 174.125 369.316406 191.878906 Z M 408.996094 191.878906 "/><path style=" stroke:none;fill-rule:nonzero;fill:#000000;fill-opacity:1;" d="M 367.925781 316.484375 C 357.132812 327.621094 347.039062 339.109375 336.945312 350.941406 C 321.285156 369.390625 302.835938 390.96875 288.566406 410.460938 C 291.003906 410.460938 362.007812 389.578125 396.117188 375.652344 C 398.207031 368.691406 398.902344 366.605469 400.292969 358.949219 C 393.679688 346.417969 384.632812 329.710938 376.625 316.484375 L 367.578125 316.484375 Z M 367.925781 316.484375 "/><path style=" stroke:none;fill-rule:nonzero;fill:#000000;fill-opacity:1;" d="M 355.046875 191.878906 C 372.449219 168.558594 390.199219 143.148438 404.472656 119.480469 C 404.121094 115.304688 403.773438 113.910156 403.425781 109.734375 C 365.140625 127.488281 324.765625 148.71875 289.261719 170.992188 C 295.179688 177.605469 300.75 184.570312 306.316406 191.53125 L 355.046875 191.53125 Z M 355.046875 191.878906 "/><path style=" stroke:none;fill-rule:nonzero;fill:#000000;fill-opacity:1;" d="M 208.511719 191.878906 C 206.425781 190.832031 204.335938 189.789062 202.246094 188.746094 C 165.003906 169.949219 126.371094 152.546875 87.386719 138.972656 C 92.261719 152.894531 98.523438 170.644531 104.789062 192.226562 L 208.859375 192.226562 Z M 208.511719 191.878906 "/><path style=" stroke:none;fill-rule:nonzero;fill:#000000;fill-opacity:1;" d="M 151.777344 316.484375 C 170.226562 326.925781 187.976562 337.714844 206.074219 349.550781 C 218.257812 338.757812 230.441406 327.96875 242.273438 316.484375 Z M 151.777344 316.484375 "/><path style=" stroke:none;fill-rule:nonzero;fill:#000000;fill-opacity:1;" d="M 266.289062 316.484375 C 271.511719 338.410156 276.382812 360.6875 279.863281 382.964844 C 280.910156 389.230469 281.953125 395.492188 282.648438 402.105469 C 304.578125 372.171875 328.246094 343.632812 353.652344 316.484375 L 265.941406 316.484375 Z M 266.289062 316.484375 "/><path style=" stroke:none;fill-rule:nonzero;fill:#000000;fill-opacity:1;" d="M 136.117188 316.484375 L 132.984375 316.484375 C 137.507812 344.328125 140.988281 371.824219 143.078125 400.019531 C 162.917969 385.75 182.058594 370.78125 200.855469 354.769531 C 191.804688 348.855469 182.753906 342.9375 173.359375 337.367188 C 161.175781 330.058594 148.644531 323.097656 136.464844 316.484375 Z M 136.117188 316.484375 "/><path style=" stroke:none;fill-rule:nonzero;fill:#000000;fill-opacity:1;" d="M 288.21875 191.878906 C 284.738281 187.699219 280.910156 183.175781 277.429688 179 C 270.816406 183.175781 264.550781 187.351562 257.9375 191.878906 Z M 288.21875 191.878906 "/><path style=" stroke:none;fill-rule:nonzero;fill:#000000;fill-opacity:1;" d="M 392.636719 316.484375 C 396.8125 323.445312 400.992188 330.753906 404.472656 337.367188 C 405.167969 331.101562 405.863281 325.183594 406.558594 318.921875 C 405.515625 318.222656 404.472656 317.179688 403.425781 316.484375 L 392.289062 316.484375 Z M 392.636719 316.484375 "/><path style=" stroke:none;fill-rule:nonzero;fill:#000000;fill-opacity:1;" d="M 81.816406 248.960938 L 71.375 248.960938 C 71.375 248.613281 71.375 248.265625 71.375 247.914062 C 71.375 245.828125 70.679688 244.433594 69.636719 244.085938 C 68.589844 243.390625 66.15625 243.390625 62.328125 243.390625 C 56.757812 243.390625 53.972656 245.132812 53.972656 248.613281 C 53.972656 251.046875 54.320312 252.441406 55.367188 252.789062 C 56.410156 253.136719 59.542969 253.484375 65.109375 253.832031 C 72.769531 254.179688 77.640625 255.226562 79.730469 256.964844 C 81.816406 258.707031 83.210938 261.839844 83.210938 267.058594 C 83.210938 272.28125 81.816406 276.109375 78.683594 278.195312 C 75.554688 280.285156 70.332031 281.328125 62.328125 281.328125 C 54.667969 281.328125 49.796875 280.285156 47.011719 278.546875 C 44.226562 276.804688 42.835938 273.324219 42.835938 268.101562 L 42.835938 267.058594 C 42.835938 267.058594 53.625 267.058594 53.625 267.058594 C 53.625 267.753906 53.625 268.101562 53.625 268.453125 C 53.277344 272.28125 56.0625 274.367188 62.675781 274.367188 C 69.289062 274.367188 72.769531 272.628906 72.769531 268.800781 C 72.769531 264.96875 70.679688 263.230469 66.503906 263.230469 C 57.105469 263.230469 50.839844 262.1875 48.054688 260.445312 C 44.921875 258.707031 43.53125 254.875 43.53125 249.308594 C 43.53125 244.433594 44.921875 240.953125 47.707031 239.214844 C 50.492188 237.472656 55.714844 236.429688 63.371094 236.777344 C 70.679688 236.777344 75.554688 237.820312 77.988281 239.5625 C 80.425781 241.300781 81.816406 244.78125 81.816406 249.65625 "/><path style=" stroke:none;fill-rule:nonzero;fill:#000000;fill-opacity:1;" d="M 102.355469 218.332031 L 102.355469 227.03125 C 102.355469 227.03125 91.910156 227.03125 91.910156 227.03125 L 91.910156 218.332031 C 91.910156 218.332031 102.355469 218.332031 102.355469 218.332031 Z M 102.003906 236.777344 L 102.003906 280.632812 C 102.003906 280.632812 91.214844 280.632812 91.214844 280.632812 L 91.214844 236.777344 C 91.214844 236.777344 102.003906 236.777344 102.003906 236.777344 Z M 102.003906 236.777344 "/><path style=" stroke:none;fill-rule:nonzero;fill:#000000;fill-opacity:1;" d="M 148.296875 237.125 L 135.417969 257.660156 L 149.691406 280.980469 L 136.8125 280.980469 L 128.109375 264.96875 L 119.410156 280.980469 L 106.53125 280.632812 L 121.148438 257.660156 L 108.617188 237.125 L 121.148438 237.125 L 128.109375 251.046875 L 135.765625 237.125 Z M 148.296875 237.125 "/><path style=" stroke:none;fill-rule:nonzero;fill:#000000;fill-opacity:1;" d="M 179.972656 280.980469 L 179.972656 245.132812 C 179.972656 245.132812 174.054688 245.132812 174.054688 245.132812 L 174.054688 237.125 C 174.054688 237.125 180.320312 237.125 180.320312 237.125 L 180.320312 232.601562 C 180.320312 227.03125 181.710938 223.203125 184.148438 221.113281 C 186.585938 219.027344 190.761719 217.980469 197.375 217.980469 C 198.417969 217.980469 199.8125 217.980469 201.898438 217.980469 L 201.898438 226.335938 C 200.507812 226.335938 199.113281 225.640625 198.070312 225.640625 C 193.546875 225.640625 191.109375 227.726562 191.109375 232.601562 L 191.109375 237.125 C 191.109375 237.125 201.898438 237.125 201.898438 237.125 L 201.898438 245.132812 C 201.898438 245.132812 190.761719 245.132812 190.761719 245.132812 L 190.761719 280.980469 C 190.761719 280.980469 179.972656 280.980469 179.972656 280.980469 Z M 179.972656 280.980469 "/><path style=" stroke:none;fill-rule:nonzero;fill:#000000;fill-opacity:1;" d="M 235.660156 254.875 L 235.660156 253.136719 C 235.660156 249.65625 234.964844 247.21875 233.921875 246.175781 C 232.875 245.132812 230.09375 244.433594 225.914062 244.433594 C 222.085938 244.433594 219.300781 245.132812 218.257812 246.175781 C 217.214844 247.566406 216.519531 250.003906 216.519531 254.527344 L 235.660156 254.527344 Z M 235.660156 267.40625 L 246.101562 267.40625 L 246.101562 269.148438 C 246.101562 277.847656 239.488281 282.027344 226.613281 282.027344 C 217.910156 282.027344 212.339844 280.632812 209.554688 277.5 C 206.773438 274.367188 205.726562 268.101562 205.726562 258.707031 C 205.726562 250.351562 207.121094 244.433594 209.90625 241.652344 C 212.6875 238.867188 218.257812 237.125 226.261719 237.472656 C 234.269531 237.472656 239.488281 238.867188 241.925781 242 C 244.710938 244.78125 245.753906 250.351562 245.753906 258.707031 L 245.753906 261.839844 C 245.753906 261.839844 216.167969 261.839844 216.167969 261.839844 C 216.167969 262.882812 216.167969 263.578125 216.167969 263.925781 C 216.167969 268.101562 216.867188 271.234375 218.257812 272.628906 C 219.648438 274.019531 222.085938 274.714844 226.261719 274.714844 C 230.09375 274.714844 232.527344 274.367188 233.921875 273.324219 C 234.964844 272.628906 235.660156 270.539062 235.660156 267.753906 "/><path style=" stroke:none;fill-rule:nonzero;fill:#000000;fill-opacity:1;" d="M 283.34375 255.226562 L 283.34375 253.484375 C 283.34375 250.003906 282.648438 247.914062 281.605469 246.871094 C 280.5625 245.828125 277.777344 245.132812 273.601562 245.132812 C 269.769531 245.132812 266.988281 245.828125 265.941406 246.871094 C 264.898438 248.265625 264.203125 250.699219 264.203125 255.226562 Z M 283.34375 267.753906 L 293.789062 267.753906 C 293.789062 267.753906 293.789062 269.496094 293.789062 269.496094 C 293.789062 278.195312 287.175781 282.375 274.296875 282.375 C 265.59375 282.375 260.027344 280.980469 257.242188 277.847656 C 254.457031 274.714844 253.414062 268.453125 253.414062 259.054688 C 253.414062 250.351562 254.804688 244.78125 257.589844 242 C 260.375 239.214844 265.941406 237.472656 273.949219 237.820312 C 281.953125 237.820312 287.175781 239.214844 289.609375 242.347656 C 292.394531 245.132812 293.4375 250.699219 293.4375 259.054688 L 293.4375 262.1875 C 293.4375 262.1875 263.855469 262.1875 263.855469 262.1875 C 263.855469 263.230469 263.855469 263.925781 263.855469 264.273438 C 263.855469 268.453125 264.550781 271.582031 265.941406 272.976562 C 267.335938 274.367188 269.769531 275.0625 273.949219 275.0625 C 277.777344 275.0625 280.214844 274.714844 281.605469 273.671875 C 282.648438 272.976562 283.34375 270.886719 283.34375 268.101562 "/><path style=" stroke:none;fill-rule:nonzero;fill:#000000;fill-opacity:1;" d="M 331.03125 238.171875 L 331.03125 246.175781 C 331.03125 246.175781 313.976562 246.175781 313.976562 246.175781 L 313.976562 268.101562 C 313.976562 272.28125 315.367188 274.367188 318.5 274.367188 C 321.980469 274.367188 323.722656 271.933594 323.722656 267.058594 L 323.722656 265.320312 L 332.769531 265.320312 C 332.769531 265.320312 332.769531 267.40625 332.769531 267.40625 C 332.769531 269.496094 332.769531 271.234375 332.769531 272.628906 C 332.074219 279.242188 327.203125 282.722656 317.804688 282.722656 C 308.40625 282.722656 303.882812 278.195312 303.882812 269.84375 L 303.882812 246.175781 C 303.882812 246.175781 298.3125 246.175781 298.3125 246.175781 L 298.3125 238.171875 C 298.3125 238.171875 303.882812 238.171875 303.882812 238.171875 L 303.882812 228.425781 C 303.882812 228.425781 314.324219 228.425781 314.324219 228.425781 L 314.324219 238.171875 C 314.324219 238.171875 331.03125 238.171875 331.03125 238.171875 Z M 331.03125 238.171875 "/><path style=" stroke:none;fill-rule:nonzero;fill:#000000;fill-opacity:1;" d="M 400.992188 238.171875 L 400.992188 282.027344 C 400.992188 282.027344 390.199219 282.027344 390.199219 282.027344 L 390.898438 274.367188 C 388.808594 279.589844 383.933594 282.375 376.625 282.375 C 366.53125 282.375 361.660156 277.5 361.660156 267.40625 L 361.660156 238.171875 C 361.660156 238.171875 372.449219 238.171875 372.449219 238.171875 L 372.449219 264.96875 C 372.449219 268.800781 372.796875 271.234375 373.839844 272.28125 C 374.886719 273.324219 376.972656 274.019531 380.453125 274.019531 C 387.066406 274.019531 390.546875 270.191406 390.546875 261.839844 L 390.546875 237.820312 C 390.546875 237.820312 401.339844 237.820312 401.339844 237.820312 Z M 400.992188 238.171875 "/><path style=" stroke:none;fill-rule:nonzero;fill:#000000;fill-opacity:1;" d="M 432.316406 246.175781 C 428.140625 246.175781 425.703125 246.871094 424.3125 248.960938 C 422.917969 250.699219 422.570312 254.527344 422.570312 260.445312 C 422.570312 266.015625 423.265625 269.84375 424.3125 271.933594 C 425.703125 273.671875 428.140625 274.714844 432.316406 274.714844 C 436.492188 274.714844 438.929688 274.019531 440.320312 271.933594 C 441.714844 270.191406 442.0625 266.363281 442.0625 260.445312 C 442.0625 254.527344 441.367188 250.699219 440.320312 248.960938 C 438.929688 247.21875 436.492188 246.175781 431.96875 246.175781 M 411.78125 238.519531 L 422.570312 238.519531 C 422.570312 238.519531 422.222656 245.132812 422.222656 245.132812 C 424.660156 240.605469 429.53125 238.171875 436.492188 238.171875 C 442.757812 238.171875 447.28125 239.910156 449.71875 243.042969 C 452.15625 246.175781 453.199219 252.09375 453.199219 260.445312 C 453.199219 269.148438 451.808594 275.066406 449.371094 278.546875 C 446.933594 281.675781 442.410156 283.417969 436.144531 283.417969 C 429.183594 283.417969 424.660156 280.980469 422.570312 276.457031 L 422.570312 301.515625 C 422.570312 301.515625 411.433594 301.515625 411.433594 301.515625 L 411.433594 238.867188 Z M 411.78125 238.519531 "/></g></svg>